# xmcd CD database file
#
# Track frame offsets:
#	150
#	30977
#	77731
#	120318
#
# Disc length: 2378 seconds
#
# Revision: 0
# Processed by: cddbd v1.5.2PL0 Copyright (c) Steve Scherf et al.
# Submitted via: CDex 1.70beta2
#
DISCID=1f094804
DTITLE=Tedeschi Trucks Band - Revelator Live E.P.
DYEAR=2012
DGENRE=Blues
TTITLE0=Don't Let Me Slide (Live)
TTITLE1=Midnight In Harlem (Live)
TTITLE2=Learn How To Love (Live)
TTITLE3=Bound For Glory (Live)
EXTD=YEAR: 2012
EXTT0=
EXTT1=
EXTT2=
EXTT3=
PLAYORDER=
